<?xml version="1.0" encoding="UTF-8" standalone="no"?>
<svg
   id="master-artboard"
   viewBox="0 0 125 20"
   width="125"
   height="20"
   version="1.1"
   sodipodi:docname="marker.svg"
   inkscape:version="1.1.2 (0a00cf5339, 2022-02-04)"
   xmlns:inkscape="http://www.inkscape.org/namespaces/inkscape"
   xmlns:sodipodi="http://sodipodi.sourceforge.net/DTD/sodipodi-0.dtd"
   xmlns="http://www.w3.org/2000/svg"
   xmlns:svg="http://www.w3.org/2000/svg">
  <defs
     id="defs76" />
  <sodipodi:namedview
     id="namedview74"
     pagecolor="#ffffff"
     bordercolor="#666666"
     borderopacity="1.0"
     inkscape:pageshadow="2"
     inkscape:pageopacity="0.0"
     inkscape:pagecheckerboard="0"
     showgrid="false"
     inkscape:zoom="4.5650814"
     inkscape:cx="60.787525"
     inkscape:cy="-18.071967"
     inkscape:window-width="1920"
     inkscape:window-height="1016"
     inkscape:window-x="0"
     inkscape:window-y="0"
     inkscape:window-maximized="1"
     inkscape:current-layer="master-artboard" />
  <rect
     id="ee-background"
     x="0"
     y="0"
     width="500"
     height="500"
     style="fill:#ffffff;fill-opacity:0" />
  <path
     d="m 4.105436,15.583974 c 0,0 220.865504,-19.480249 62.36359,-6.507735 C -92.032894,22.048721 97.552211,5.560845 97.552211,5.560845 L 11.824952,11.881996 100.13464,5.694834 8.0466621,13.053459 100.69187,5.381865"
     style="fill:#1fbdb8;fill-opacity:1;stroke:#000000;stroke-width:0;stroke-opacity:1;paint-order:stroke"
     id="use2735" />
  <path
     d="m 4.7997394,16.583086 c 0,0 220.8655006,-19.480249 62.3635906,-6.507735 C -91.338591,23.047833 98.246515,6.559957 98.246515,6.559957 L 12.519255,12.881108 100.82894,6.693946 8.7409655,14.052571 101.38617,6.380977"
     style="fill:#1fbdb8;fill-opacity:1;stroke:#000000;stroke-width:0;stroke-opacity:1;paint-order:stroke"
     id="use2737" />
  <path
     d="m 4.973822,16.606852 c 0,0 220.865508,-19.480249 62.36359,-6.507735 C -91.164508,23.071599 98.420597,6.583723 98.420597,6.583723 L 12.693338,12.904874 101.00303,6.717712 8.9150481,14.076337 101.56026,6.404743"
     style="fill:#1fbdb8;fill-opacity:1;stroke:#000000;stroke-width:0;stroke-opacity:1;paint-order:stroke"
     id="use2739" />
  <path
     d="m 4.3027108,16.557978 c 0,0 220.8655092,-19.480249 62.3635902,-6.507735 C -91.835619,23.022725 97.749486,6.534849 97.749486,6.534849 L 12.022227,12.856 100.33192,6.668838 8.2439369,14.027463 100.88915,6.355869"
     style="fill:#1fbdb8;fill-opacity:1;stroke:#000000;stroke-width:0;stroke-opacity:1;paint-order:stroke"
     id="use2741" />
  <path
     d="m 4.4252258,16.618218 c 0,0 220.8655042,-19.480249 62.3635902,-6.507735 C -91.713104,23.082965 97.872001,6.595089 97.872001,6.595089 L 12.144742,12.91624 100.45443,6.729078 8.3664519,14.087703 101.01166,6.416109"
     style="fill:#1fbdb8;fill-opacity:1;stroke:#000000;stroke-width:0;stroke-opacity:1;paint-order:stroke"
     id="use2743" />
  <path
     d="m 4.8589837,15.995521 c 0,0 220.8655063,-19.480249 62.3635903,-6.507735 C -91.279346,22.460268 98.305759,5.972392 98.305759,5.972392 L 12.5785,12.293543 100.88819,6.106381 8.8002098,13.465006 101.44542,5.793412"
     style="fill:#1fbdb8;fill-opacity:1;stroke:#000000;stroke-width:0;stroke-opacity:1;paint-order:stroke"
     id="use2745" />
  <path
     d="m 4.9453972,15.561403 c 0,0 220.8655028,-19.480249 62.3635898,-6.507735 C -91.192933,22.02615 98.392172,5.538274 98.392172,5.538274 L 12.664913,11.859425 100.9746,5.672263 8.8866233,13.030888 101.53183,5.359294"
     style="fill:#1fbdb8;fill-opacity:1;stroke:#000000;stroke-width:0;stroke-opacity:1;paint-order:stroke"
     id="use2747" />
  <path
     d="m 5.0108369,16.287925 c 0,0 220.8655031,-19.480249 62.3635901,-6.507735 C -91.127493,22.752672 98.457612,6.264796 98.457612,6.264796 L 12.730353,12.585947 101.04004,6.398785 8.952063,13.75741 101.59727,6.085816"
     style="fill:#1fbdb8;fill-opacity:1;stroke:#000000;stroke-width:0;stroke-opacity:1;paint-order:stroke"
     id="use2749" />
  <path
     d="m 4.2283095,16.908452 c 0,0 220.8655005,-19.480249 62.3635905,-6.507735 C -91.91002,23.373199 97.675085,6.885323 97.675085,6.885323 L 11.947826,13.206474 100.25751,7.019312 8.1695356,14.377937 100.81474,6.706343"
     style="fill:#1fbdb8;fill-opacity:1;stroke:#000000;stroke-width:0;stroke-opacity:1;paint-order:stroke"
     id="use2751" />
  <path
     d="m 5.0438263,16.222307 c 0,0 220.8655037,-19.480249 62.3635897,-6.507735 C -91.094504,22.687054 98.490601,6.199178 98.490601,6.199178 L 12.763342,12.520329 101.07303,6.333167 8.9850524,13.691792 101.63026,6.020198"
     style="fill:#1fbdb8;fill-opacity:1;stroke:#000000;stroke-width:0;stroke-opacity:1;paint-order:stroke"
     id="use2753" />
  <path
     d="m 5.0756764,16.088265 c 0,0 220.8655036,-19.480249 62.3635906,-6.507735 C -91.062654,22.553012 98.522452,6.065136 98.522452,6.065136 L 12.795192,12.386287 101.10488,6.199125 9.0169025,13.55775 101.66211,5.886156"
     style="fill:#1fbdb8;fill-opacity:1;stroke:#000000;stroke-width:0;stroke-opacity:1;paint-order:stroke"
     id="use2755" />
  <path
     d="m 4.4156825,16.208082 c 0,0 220.8655075,-19.480249 62.3635905,-6.507735 C -91.722647,22.672829 97.862458,6.184953 97.862458,6.184953 L 12.135199,12.506104 100.44489,6.318942 8.3569086,13.677567 101.00212,6.005973"
     style="fill:#1fbdb8;fill-opacity:1;stroke:#000000;stroke-width:0;stroke-opacity:1;paint-order:stroke"
     id="use2757" />
  <path
     d="m 4.2387989,15.839654 c 0,0 220.8655011,-19.480249 62.3635901,-6.507735 C -91.899531,22.304401 97.685574,5.816525 97.685574,5.816525 L 11.958315,12.137676 100.268,5.950514 8.180025,13.309139 100.82523,5.637545"
     style="fill:#1fbdb8;fill-opacity:1;stroke:#000000;stroke-width:0;stroke-opacity:1;paint-order:stroke"
     id="use2759" />
  <path
     d="m 4.8092712,15.582003 c 0,0 220.8655088,-19.480249 62.3635898,-6.507735 C -91.329059,22.04675 98.256046,5.558874 98.256046,5.558874 L 12.528787,11.880025 100.83848,5.692863 8.7504973,13.051488 101.39571,5.379894"
     style="fill:#1fbdb8;fill-opacity:1;stroke:#000000;stroke-width:0;stroke-opacity:1;paint-order:stroke"
     id="use2761" />
  <path
     d="m 4.2425403,15.575357 c 0,0 220.8655097,-19.480249 62.3635897,-6.507735 C -91.89579,22.040104 97.689315,5.552228 97.689315,5.552228 L 11.962056,11.873379 100.27175,5.686217 8.1837664,13.044842 100.82898,5.373248"
     style="fill:#1fbdb8;fill-opacity:1;stroke:#000000;stroke-width:0;stroke-opacity:1;paint-order:stroke"
     id="use2763" />
  <path
     d="m 4.9702101,16.75838 c 0,0 220.8655099,-19.480249 62.3635899,-6.507735 C -91.16812,23.223127 98.416985,6.735251 98.416985,6.735251 L 12.689726,13.056402 100.99942,6.86924 8.9114362,14.227865 101.55665,6.556271"
     style="fill:#1fbdb8;fill-opacity:1;stroke:#000000;stroke-width:0;stroke-opacity:1;paint-order:stroke"
     id="use2765" />
  <path
     d="m 4.9809173,16.670807 c 0,0 220.8655027,-19.480249 62.3635897,-6.507735 C -91.157413,23.135554 98.427692,6.647678 98.427692,6.647678 L 12.700433,12.968829 101.01012,6.781667 8.9221434,14.140292 101.56735,6.468698"
     style="fill:#1fbdb8;fill-opacity:1;stroke:#000000;stroke-width:0;stroke-opacity:1;paint-order:stroke"
     id="use2767" />
  <path
     d="m 5.4170074,16.503759 c 0,0 220.8655026,-19.480249 62.3635896,-6.507735 C -90.721323,22.968506 98.863782,6.48063 98.863782,6.48063 L 13.136523,12.801781 101.44621,6.614619 9.3582335,13.973244 102.00344,6.30165"
     style="fill:#1fbdb8;fill-opacity:1;stroke:#000000;stroke-width:0;stroke-opacity:1;paint-order:stroke"
     id="use2769" />
  <path
     d="m 4.6416333,16.38315 c 0,0 220.8655067,-19.480249 62.3635897,-6.507735 C -91.496697,22.847897 98.088408,6.360021 98.088408,6.360021 L 12.361149,12.681172 100.67084,6.49401 8.5828594,13.852635 101.22807,6.181041"
     style="fill:#1fbdb8;fill-opacity:1;stroke:#000000;stroke-width:0;stroke-opacity:1;paint-order:stroke"
     id="use2771" />
  <path
     d="m 4.3126637,15.761158 c 0,0 220.8655063,-19.480249 62.3635903,-6.507735 C -91.825666,22.225905 97.759439,5.738029 97.759439,5.738029 L 12.03218,12.05918 100.34187,5.872018 8.2538898,13.230643 100.8991,5.559049"
     style="fill:#1fbdb8;fill-opacity:1;stroke:#000000;stroke-width:0;stroke-opacity:1;paint-order:stroke"
     id="use2773" />
  <path
     d="m 4.3401027,15.858142 c 0,0 220.8655073,-19.480249 62.3635903,-6.507735 C -91.798227,22.322889 97.786878,5.835013 97.786878,5.835013 L 12.059619,12.156164 100.36931,5.969002 8.2813288,13.327627 100.92654,5.656033"
     style="fill:#1fbdb8;fill-opacity:1;stroke:#000000;stroke-width:0;stroke-opacity:1;paint-order:stroke"
     id="use2775" />
  <path
     d="m 4.7330463,17.367359 c 0,0 220.8655037,-19.480249 62.3635897,-6.507735 C -91.405284,23.832106 98.179821,7.34423 98.179821,7.34423 L 12.452562,13.665381 100.76225,7.478219 8.6742724,14.836844 101.31948,7.16525"
     style="fill:#1fbdb8;fill-opacity:1;stroke:#000000;stroke-width:0;stroke-opacity:1;paint-order:stroke"
     id="use2777" />
  <path
     d="m 4.6804523,16.640678 c 0,0 220.8655077,-19.480249 62.3635897,-6.507735 C -91.457878,23.105425 98.127227,6.617549 98.127227,6.617549 L 12.399968,12.9387 100.70966,6.751538 8.6216784,14.110163 101.26689,6.438569"
     style="fill:#1fbdb8;fill-opacity:1;stroke:#000000;stroke-width:0;stroke-opacity:1;paint-order:stroke"
     id="use2779" />
  <path
     d="m 5.5979285,16.665828 c 0,0 220.8655015,-19.480249 62.3635905,-6.507735 C -90.540401,23.130575 99.044704,6.642699 99.044704,6.642699 L 13.317445,12.96385 101.62713,6.776688 9.5391546,14.135313 102.18436,6.463719"
     style="fill:#1fbdb8;fill-opacity:1;stroke:#000000;stroke-width:0;stroke-opacity:1;paint-order:stroke"
     id="use2781" />
  <path
     d="m 4.5563897,15.731718 c 0,0 220.8655003,-19.480249 62.3635903,-6.507735 C -91.58194,22.196465 98.003165,5.708589 98.003165,5.708589 L 12.275906,12.02974 100.58559,5.842578 8.4976158,13.201203 101.14282,5.529609"
     style="fill:#1fbdb8;fill-opacity:1;stroke:#000000;stroke-width:0;stroke-opacity:1;paint-order:stroke"
     id="use2783" />
  <path
     d="m 5.167597,16.444875 c 0,0 220.865503,-19.480249 62.36359,-6.507735 C -90.970733,22.909622 98.614372,6.421746 98.614372,6.421746 L 12.887113,12.742897 101.1968,6.555735 9.1088231,13.91436 101.75403,6.242766"
     style="fill:#1fbdb8;fill-opacity:1;stroke:#000000;stroke-width:0;stroke-opacity:1;paint-order:stroke"
     id="use2785" />
</svg>
